HIERARCHY
ROOT Hips
{
	OFFSET -3.958830 18.904000 13.208200
	CHANNELS 6 Xposition Yposition Zposition Zrotation Yrotation Xrotation 
	JOINT LHipJoint
	{
		OFFSET 0.000000 0.000000 0.000000
		CHANNELS 3 Zrotation Yrotation Xrotation
		JOINT LeftUpLeg
		{
			OFFSET 1.800000 -1.400000 0.085000
			CHANNELS 3 Zrotation Yrotation Xrotation
			JOINT LeftLeg
			{
				OFFSET 2.215000 -6.000000 0.000000
				CHANNELS 3 Zrotation Yrotation Xrotation
				JOINT LeftFoot
				{
					OFFSET 2.500000 -6.900000 0.000000
					CHANNELS 3 Zrotation Yrotation Xrotation
					JOINT LeftToeBase
					{
						OFFSET 0.200000 -0.500000 1.950000
						CHANNELS 3 Zrotation Yrotation Xrotation
						End Site
						{
							OFFSET 0.000000 0.000000 0.000000
						}
					}
				}
			}
		}
	}
	JOINT RHipJoint
	{
		OFFSET 0.000000 0.000000 0.000000
		CHANNELS 3 Zrotation Yrotation Xrotation
		JOINT RightUpLeg
		{
			OFFSET -1.800000 -1.400000 0.085000
			CHANNELS 3 Zrotation Yrotation Xrotation
			JOINT RightLeg
			{
				OFFSET -2.215000 -6.000000 0.000000
				CHANNELS 3 Zrotation Yrotation Xrotation
				JOINT RightFoot
				{
					OFFSET -2.500000 -6.900000 0.000000
					CHANNELS 3 Zrotation Yrotation Xrotation
					JOINT RightToeBase
					{
						OFFSET -0.200000 -0.500000 1.950000
						CHANNELS 3 Zrotation Yrotation Xrotation
						End Site
						{
							OFFSET 0.000000 0.000000 0.000000
						}
					}
				}
			}
		}
	}
	JOINT LowerBack
	{
		OFFSET 0.000000 0.000000 0.000000
		CHANNELS 3 Zrotation Yrotation Xrotation
		JOINT Spine
		{
			OFFSET -0.087000 1.940000 -0.288900
			CHANNELS 3 Zrotation Yrotation Xrotation
			JOINT Spine1
			{
				OFFSET 0.000000 1.950000 0.060000
				CHANNELS 3 Zrotation Yrotation Xrotation
				JOINT Neck
				{
					OFFSET 0.000000 0.000000 0.000000
					CHANNELS 3 Zrotation Yrotation Xrotation
					JOINT Neck1
					{
						OFFSET 0.000000 1.600000 0.340000
						CHANNELS 3 Zrotation Yrotation Xrotation
						JOINT Head
						{
							OFFSET 0.000000 1.667000 -0.240000
							CHANNELS 3 Zrotation Yrotation Xrotation
							End Site
							{
								OFFSET 0.000000 0.000000 0.000000
							}
						}
					}
				}
				JOINT LeftShoulder
				{
					OFFSET 0.000000 0.000000 0.000000
					CHANNELS 3 Zrotation Yrotation Xrotation
					JOINT LeftArm
					{
						OFFSET 2.700000 1.550000 -0.730000
						CHANNELS 3 Zrotation Yrotation Xrotation
						JOINT LeftForeArm
						{
							OFFSET 5.450000 0.000000 0.000000
							CHANNELS 3 Zrotation Yrotation Xrotation
							JOINT LeftHand
							{
								OFFSET 3.450000 0.000000 0.000000
								CHANNELS 3 Zrotation Yrotation Xrotation
								JOINT LeftHandIndex1
								{
									OFFSET 0.750000 0.000000 0.000000
									CHANNELS 3 Zrotation Yrotation Xrotation
									End Site
									{
										OFFSET 0.000000 0.000000 0.000000
									}
								}
							}
						}
					}
				}
				JOINT RightShoulder
				{
					OFFSET 0.000000 0.000000 0.000000
					CHANNELS 3 Zrotation Yrotation Xrotation
					JOINT RightArm
					{
						OFFSET -2.700000 1.550000 -0.730000
						CHANNELS 3 Zrotation Yrotation Xrotation
						JOINT RightForeArm
						{
							OFFSET -5.450000 0.000000 0.000000
							CHANNELS 3 Zrotation Yrotation Xrotation
							JOINT RightHand
							{
								OFFSET -3.450000 0.000000 0.000000
								CHANNELS 3 Zrotation Yrotation Xrotation
								JOINT RightHandIndex1
								{
									OFFSET -0.750000 0.000000 0.000000
									CHANNELS 3 Zrotation Yrotation Xrotation
									End Site
									{
										OFFSET 0.000000 0.000000 0.000000
									}
								}
							}
						}
					}
				}
			}
		}
	}
}
MOTION
Frames: 13
Frame Time: 0.016667
-0.342820 17.220650 -3.506180 1.778965 15.568770 -6.672095 -14.118486 10.847746 2.586971 -0.211297 -1.604004 -7.699867 -11.777014 5.724140 10.849023 -0.710413 3.859295 3.281839 0.861820 0.833040 0.338540 19.333775 -12.309303 3.633460 -14.534041 7.197625 -20.151696 22.729465 -14.469917 36.596661 -1.343054 -7.683056 1.365127 0.563740 0.170600 0.270070 -6.945504 5.324082 -8.503773 29.607294 -6.316984 32.968592 -24.848867 -0.649553 24.855758 9.430184 -11.070368 -6.941645 -17.042826 5.892436 45.258732 10.120680 -9.017260 -32.662690 -15.526219 -32.905425 15.817278 -9.926842 -7.580707 -0.757065 15.734535 -5.463585 -2.021123 -3.515146 2.984008 0.672850 -0.183170 0.260350 0.200480 1.887645 42.961555 -10.618686 25.916101 56.714575 11.896808 -30.952861 66.520773 -17.314201 2.327141 -0.083554 -0.007760 0.544580 0.005660 0.022140 
-0.342580 17.216170 -3.504660 1.817245 15.635154 -6.601618 -14.120198 10.845908 2.590350 -0.136854 -1.600536 -7.713647 -11.960603 5.757898 10.781276 -0.699843 3.875177 3.278642 0.861290 0.830680 0.336990 19.333088 -12.298480 3.633641 -14.536686 7.234706 -20.232361 22.702534 -14.476240 36.683255 -1.344690 -7.688634 1.366568 0.559380 0.172270 0.271480 -6.942678 5.309646 -8.505286 29.551947 -6.303617 32.953030 -24.847182 -0.599783 24.907588 9.394325 -10.998660 -7.065427 -16.986654 5.847282 45.370565 10.228140 -9.061340 -32.579820 -15.498894 -32.941392 15.800017 -10.018129 -7.597517 -0.787438 15.834801 -5.421761 -2.027225 -3.516663 2.984481 0.672310 -0.183080 0.260230 0.203350 1.899748 42.955890 -10.391414 25.815008 56.557654 11.488178 -31.384031 66.870757 -17.720518 2.313176 -0.080334 -0.005390 0.542390 0.003560 0.024010 
-0.341710 17.209630 -3.502470 1.912121 15.761900 -6.483382 -14.128910 10.858104 2.602025 -0.051844 -1.601338 -7.764727 -12.239999 5.817167 10.720487 -0.674801 3.891280 3.273024 0.862580 0.833810 0.336910 19.323993 -12.271160 3.633588 -14.570868 7.280680 -20.347027 22.665044 -14.482493 36.812548 -1.349775 -7.692659 1.366590 0.552610 0.165220 0.272530 -6.919655 5.244213 -8.503650 29.333279 -6.264807 33.038857 -24.717653 -0.515856 24.922253 9.287192 -10.802352 -7.281468 -16.788878 5.712922 45.552808 10.365350 -9.079790 -32.534830 -15.569245 -32.974144 15.700745 -10.118741 -7.701273 -0.866308 15.937146 -5.376915 -2.029674 -3.512542 2.990717 0.668990 -0.188610 0.265410 0.206200 2.081803 42.937306 -9.913237 25.642347 56.245767 10.681128 -31.729394 67.652666 -18.226394 2.281462 -0.085022 0.004750 0.532860 -0.003780 0.027620 
-0.341810 17.203780 -3.499520 1.974191 15.903240 -6.351164 -14.140286 10.880980 2.614510 0.090660 -1.609763 -7.892814 -12.533688 5.895548 10.736702 -0.654825 3.914058 3.260489 0.859010 0.832450 0.336690 19.310553 -12.239980 3.632920 -14.529804 7.348117 -20.450518 22.575445 -14.461196 36.949577 -1.351557 -7.684695 1.369062 0.543640 0.156530 0.272450 -6.887115 5.156104 -8.499953 29.095040 -6.222204 33.199677 -24.496483 -0.395513 24.921839 9.129144 -10.559428 -7.558365 -16.554792 5.508299 45.754820 10.533920 -9.095900 -32.674430 -15.620308 -32.977155 15.527457 -10.300339 -7.896774 -0.979580 16.181180 -5.359118 -2.055061 -3.512456 2.988572 0.670390 -0.195860 0.272090 0.202610 2.320258 42.871056 -9.257758 25.486899 55.844049 9.540796 -31.745469 68.685944 -18.657240 2.236795 -0.083757 0.012000 0.524730 -0.006210 0.029260 
-0.343840 17.197790 -3.496080 2.031717 16.087086 -6.216421 -14.156798 10.918341 2.631012 0.250998 -1.631039 -8.074165 -12.830941 5.986829 10.817740 -0.643007 3.951542 3.239829 0.849570 0.819410 0.333860 19.290216 -12.198050 3.631668 -14.483390 7.414849 -20.519750 22.505816 -14.446260 37.061245 -1.348478 -7.677542 1.373984 0.532090 0.149650 0.274690 -6.839152 5.024142 -8.495215 28.757116 -6.172092 33.430486 -24.155550 -0.270599 24.877802 8.908254 -10.274307 -7.908160 -16.299665 5.314889 45.994733 10.714170 -9.085210 -32.760640 -15.750280 -33.026079 15.345227 -10.503923 -8.040631 -1.129796 16.478825 -5.484247 -2.110294 -3.517136 2.982944 0.677660 -0.199550 0.276210 0.195790 2.719673 42.884622 -8.478552 25.286385 55.361408 8.174841 -30.880350 69.807505 -18.593153 2.182289 -0.101566 0.012690 0.515000 -0.003170 0.025950 
-0.343920 17.191790 -3.491990 1.949215 16.300346 -6.058943 -14.168023 10.948863 2.642332 0.472757 -1.651275 -8.285696 -13.056034 6.035820 10.800719 -0.625431 3.963467 3.230061 0.842870 0.810650 0.332870 19.275348 -12.163596 3.635574 -14.325749 7.493788 -20.626230 22.450640 -14.426724 37.155230 -1.348690 -7.662937 1.380640 0.518480 0.140180 0.276270 -6.807336 4.920978 -8.496983 28.662099 -6.178231 33.557249 -23.885925 -0.178028 24.768681 8.701758 -9.974577 -8.293947 -16.047755 5.084809 46.347579 10.966810 -9.105400 -32.790310 -15.925502 -33.070843 15.138986 -10.731206 -8.253974 -1.295291 16.766274 -5.588927 -2.160530 -3.516855 2.985080 0.680430 -0.206360 0.281500 0.190590 3.139058 42.820791 -7.652969 25.260449 54.959748 6.939078 -29.308252 70.811402 -18.082824 2.135187 -0.132674 0.019610 0.501910 -0.004390 0.025470 
-0.343080 17.185150 -3.486260 1.789035 16.537645 -5.865265 -14.170013 10.962750 2.648207 0.706441 -1.668681 -8.496091 -13.207305 6.040894 10.689537 -0.615495 3.956850 3.229708 0.837740 0.805000 0.330020 19.270594 -12.142585 3.646006 -14.132743 7.573362 -20.773964 22.446774 -14.426518 37.227167 -1.350949 -7.652892 1.387775 0.508180 0.133870 0.275220 -6.804208 4.872050 -8.509138 28.758522 -6.242036 33.557932 -23.772116 -0.147785 24.629007 8.518237 -9.681105 -8.643632 -15.766561 4.850395 46.676460 11.235700 -9.122440 -32.824360 -16.159745 -33.027736 14.868623 -10.801425 -8.449516 -1.451379 16.917234 -5.744915 -2.201544 -3.514714 2.985907 0.683370 -0.211640 0.284480 0.188180 3.615532 42.584158 -6.810459 25.585644 54.806080 6.080508 -27.479192 71.488896 -17.320576 2.091499 -0.154264 0.023840 0.493110 -0.006120 0.025160 
-0.343700 17.180570 -3.481290 1.613823 16.803476 -5.699118 -14.171728 10.974864 2.654304 0.951561 -1.687636 -8.698647 -13.352611 6.045396 10.590671 -0.603104 3.947972 3.231658 0.837780 0.805880 0.333190 19.265227 -12.129371 3.654204 -13.917728 7.626935 -20.882026 22.420893 -14.403073 37.250639 -1.355290 -7.631379 1.397440 0.501390 0.124300 0.273140 -6.802220 4.838269 -8.523534 28.854124 -6.315700 33.591746 -23.706508 -0.119877 24.497497 8.409828 -9.360258 -8.936361 -15.359203 4.603922 46.994578 11.431240 -9.080750 -32.903670 -16.382770 -33.043870 14.664545 -10.748903 -8.583353 -1.593372 16.964933 -5.887973 -2.224598 -3.507393 2.987692 0.686080 -0.219370 0.291600 0.188660 3.966868 42.369935 -6.146780 25.875012 54.730151 5.392796 -25.815087 71.861930 -16.556822 2.067100 -0.181207 0.029210 0.486350 -0.013330 0.024800 
-0.345230 17.177400 -3.477650 1.531894 17.045878 -5.530505 -14.173539 10.981754 2.663642 1.072985 -1.709258 -8.841384 -13.441178 6.023403 10.444704 -0.589977 3.925822 3.239618 0.841500 0.810410 0.338670 19.260100 -12.117088 3.665822 -13.840188 7.666774 -21.024401 22.452023 -14.402246 37.267253 -1.362516 -7.619751 1.402982 0.495290 0.112600 0.271680 -6.799894 4.815154 -8.542878 28.849908 -6.352707 33.682588 -23.701769 -0.062280 24.381613 8.351017 -8.995630 -9.204065 -14.822078 4.331024 47.303413 11.540010 -9.017760 -32.942680 -16.592464 -33.126773 14.508489 -10.488792 -8.617067 -1.736142 16.864499 -6.107872 -2.236078 -3.497178 2.994998 0.687250 -0.227470 0.298810 0.190490 4.223581 42.190435 -5.588016 26.078612 54.660720 4.731625 -24.552892 72.062688 -16.010589 2.053798 -0.209184 0.037510 0.477770 -0.022250 0.023630 
-0.347250 17.176290 -3.474240 1.484898 17.249887 -5.404081 -14.176517 10.986225 2.671301 1.171795 -1.714982 -8.872195 -13.507260 5.983149 10.219770 -0.581105 3.906793 3.244468 0.846180 0.812880 0.347190 19.255241 -12.102925 3.674921 -13.824593 7.701066 -21.111868 22.536452 -14.411522 37.244379 -1.369090 -7.613289 1.403633 0.490000 0.100440 0.274420 -6.794499 4.792105 -8.557005 28.799363 -6.373512 33.817810 -23.706774 0.010225 24.303613 8.286903 -8.679757 -9.415857 -14.365955 4.105965 47.583251 11.715520 -8.959820 -33.063060 -16.745218 -33.245785 14.388176 -10.214783 -8.697340 -1.842773 16.725189 -6.196856 -2.236620 -3.488924 2.998663 0.692540 -0.235430 0.307780 0.189510 4.432450 42.081723 -5.147370 26.138962 54.544150 4.094244 -23.691009 72.234044 -15.682971 2.044676 -0.236257 0.044620 0.466830 -0.030270 0.021430 
-0.349200 17.176080 -3.471400 1.420987 17.408927 -5.276716 -14.177837 10.983446 2.674801 1.268775 -1.711609 -8.878783 -13.546719 5.926337 9.932273 -0.574402 3.883818 3.251885 0.845870 0.812790 0.350840 19.253921 -12.086866 3.688451 -13.829037 7.757655 -21.248737 22.679765 -14.440091 37.228512 -1.374358 -7.613780 1.402855 0.484840 0.093350 0.274230 -6.793918 4.782121 -8.570425 28.781819 -6.401995 33.929388 -23.751655 0.080057 24.249119 8.226781 -8.424533 -9.588401 -13.994961 3.921452 47.747757 11.881050 -8.914110 -33.151590 -16.873999 -33.371419 14.289500 -9.901279 -8.742224 -1.932365 16.531179 -6.309863 -2.231116 -3.484086 2.997857 0.694460 -0.240780 0.313240 0.187490 4.618921 42.018390 -4.780978 26.148600 54.421023 3.524325 -23.202165 72.406658 -15.574053 2.039294 -0.251890 0.049020 0.461320 -0.034040 0.020920 
-0.350540 17.175960 -3.468950 1.365825 17.568078 -5.116742 -14.179179 10.974626 2.673850 1.316429 -1.710853 -8.895634 -13.542206 5.860251 9.657556 -0.578615 3.865337 3.259490 0.839560 0.805550 0.343560 19.255448 -12.063870 3.705887 -13.899489 7.826350 -21.443558 22.911648 -14.507719 37.204100 -1.377707 -7.629332 1.400123 0.480910 0.096570 0.273460 -6.796845 4.770760 -8.579902 28.782708 -6.444698 33.965742 -23.801241 0.112822 24.187401 8.128009 -8.303866 -9.709243 -13.877297 3.842208 47.817261 12.119730 -8.925830 -33.196180 -16.924163 -33.408030 14.176412 -9.758806 -8.833954 -1.991509 16.493705 -6.361206 -2.242286 -3.487387 2.990401 0.698780 -0.240600 0.312430 0.187590 4.795373 41.945009 -4.460005 26.198441 54.341665 3.106602 -22.857014 72.588005 -15.520142 2.021955 -0.259218 0.045310 0.462690 -0.030330 0.020840 
-0.352110 17.174650 -3.466220 1.361553 17.674521 -4.927765 -14.182901 10.967757 2.676463 1.300331 -1.713255 -8.900949 -13.534584 5.792276 9.360234 -0.591934 3.858381 3.265186 0.823930 0.783310 0.331880 19.255559 -12.035192 3.722044 -13.988878 7.906446 -21.688423 23.085174 -14.568965 37.235697 -1.373494 -7.648834 1.396291 0.473000 0.109210 0.271800 -6.792252 4.742765 -8.586017 28.665900 -6.435587 33.954928 -23.806756 0.166291 24.140034 8.024095 -8.245176 -9.820166 -13.863116 3.824126 47.837997 12.285730 -8.972990 -33.042750 -16.935832 -33.429814 14.093023 -9.730033 -8.901074 -2.040295 16.670443 -6.283259 -2.271231 -3.503673 2.976541 0.704200 -0.234340 0.302530 0.183490 4.938296 41.937210 -4.179825 26.146079 54.198776 2.680988 -22.446235 72.815503 -15.422908 2.000885 -0.270104 0.032750 0.468600 -0.016790 0.017670 
